
<svg version="1.1" id="Layer_1" xmlns="http://www.w3.org/2000/svg" xmlns:xlink="http://www.w3.org/1999/xlink" x="0px" y="0px"
	 width="100%" viewBox="0 0 512 512" enable-background="new 0 0 512 512" xml:space="preserve">
<path fill="#ffffff" opacity="1.000000" stroke="none" 
	d="
M211.764679,1.307354 
	C310.791748,1.000000 409.583527,1.019491 508.375153,0.920242 
	C511.891113,0.916710 513.114624,1.342197 513.111511,5.371529 
	C512.981384,173.134140 512.989502,340.896851 513.075073,508.659546 
	C513.076782,512.007812 512.707703,513.126465 508.843781,513.118042 
	C435.208557,512.958069 361.572876,513.000000 287.468658,513.000000 
	C285.540222,510.678894 287.159119,509.186005 288.605988,507.904266 
	C296.864105,500.588715 299.197357,490.736969 301.068817,480.458374 
	C302.617401,471.953003 300.846100,463.630524 300.909912,454.841980 
	C301.930206,451.882233 304.246674,450.760956 306.379333,449.524841 
	C336.132355,432.279663 365.958771,415.161499 395.709869,397.912933 
	C397.574707,396.831726 399.452393,395.667664 402.123688,396.514771 
	C405.299805,399.857361 406.408966,403.980957 408.470764,407.579865 
	C411.487396,412.845398 415.012360,417.645599 420.175262,420.997925 
	C427.699493,425.883484 435.615601,424.987183 441.971283,418.710480 
	C449.308258,411.464600 451.749908,402.079559 452.686249,392.404022 
	C454.150818,377.270508 452.264282,362.536896 445.688263,348.545715 
	C441.486450,339.605865 434.776245,333.188019 426.506317,327.579407 
	C425.271637,324.475739 426.066711,321.633545 426.064301,318.830231 
	C426.035309,285.000793 425.968628,251.170944 426.125153,217.342224 
	C426.146606,212.700653 424.525391,209.472031 421.143829,206.562424 
	C382.757416,173.533783 344.539062,140.310516 306.221619,107.201836 
	C283.785980,87.816048 261.501465,68.255356 238.951523,49.001377 
	C236.265411,46.707901 234.054550,44.025066 232.236862,40.994423 
	C225.637207,29.990902 219.330780,18.817278 212.913330,7.708244 
	C211.842636,5.854827 210.628036,3.953046 211.764679,1.307354 
z"/>
<path fill="#000000" opacity="1.000000" stroke="none" 
	d="
M270.224548,512.669312 
	C181.706421,513.000000 93.412827,512.981018 5.119353,513.076965 
	C1.956071,513.080383 0.889093,512.792358 0.891814,509.122772 
	C1.016443,341.031891 1.017094,172.940887 0.889179,4.850018 
	C0.886344,1.124665 2.039476,0.921920 5.146582,0.926834 
	C67.118500,1.024841 129.090607,1.000000 191.531342,1.000000 
	C193.506668,5.048877 189.883255,5.777608 187.743469,7.040268 
	C172.426422,16.078684 156.989288,24.912956 141.595551,33.820953 
	C119.871300,46.392277 98.136429,58.945103 76.402008,71.498772 
	C72.772644,73.595070 69.307350,75.912880 68.148148,80.745483 
	C67.253181,82.424438 66.051392,83.334541 64.777550,84.104897 
	C61.173531,86.284409 60.140835,89.112068 62.510166,93.221970 
	C69.480064,104.231316 75.463417,115.385712 81.906815,126.268898 
	C85.434181,132.226761 85.960258,138.915405 86.820267,145.479553 
	C91.378647,180.272263 96.064125,215.047592 100.732590,249.825546 
	C103.099991,267.461578 105.464966,285.099396 107.713753,302.751587 
	C108.310814,307.438324 107.444550,311.728851 103.197723,315.130676 
	C100.149139,316.174133 98.453293,314.381287 96.650497,312.945221 
	C86.666756,304.992523 76.473053,306.567566 69.302299,317.051025 
	C63.211094,325.956207 61.337223,336.147156 61.139584,346.495209 
	C60.855690,361.359222 64.031921,375.610779 71.618584,388.636780 
	C74.514435,393.608917 78.222664,397.882690 83.226028,400.778137 
	C91.874931,405.783295 100.629181,403.769470 106.453430,395.644806 
	C110.004234,390.691589 112.136383,385.129120 113.590111,379.253906 
	C114.061890,377.347198 114.168945,375.248444 116.120819,373.592773 
	C119.351723,372.618896 121.638374,374.203522 123.908150,375.522278 
	C162.956268,398.209198 202.146057,420.650635 241.226822,443.280823 
	C243.238388,444.445618 245.319717,445.554474 246.947342,447.834656 
	C248.697922,452.712891 247.773041,457.411407 248.005585,462.036682 
	C248.750610,476.855499 252.965347,490.430267 262.195038,502.264191 
	C263.648071,504.127167 265.378906,505.632019 267.154541,507.142548 
	C268.765442,508.513031 270.744019,509.727875 270.224548,512.669312 
z"/>
<path fill="#C8CED6" opacity="1.000000" stroke="none" 
	d="
M246.381027,448.103699 
	C222.459518,434.436157 199.000031,420.729950 175.464935,407.154816 
	C156.266785,396.081207 136.978241,385.164307 117.405289,374.029846 
	C112.400826,370.588013 115.561546,366.263611 115.730194,362.000732 
	C117.846733,359.087067 120.054291,360.280823 122.114647,361.352631 
	C125.797997,363.268738 129.260284,365.580383 132.939957,367.518341 
	C135.056168,368.632904 136.949707,368.648346 139.049561,367.500214 
	C148.661560,362.244629 158.009491,356.543365 167.307205,351.224396 
	C167.624847,349.792999 166.772202,349.438416 166.100479,349.050385 
	C157.612839,344.147308 149.059387,339.354218 140.672043,334.283447 
	C137.461838,332.342651 134.651581,332.214905 131.438019,334.242157 
	C128.212387,336.277069 124.889740,338.179779 121.565399,340.063568 
	C119.539825,341.211395 117.503418,342.389618 114.653183,341.886108 
	C110.721794,339.169128 109.921707,335.386810 109.928589,330.931580 
	C111.560295,327.481873 114.970963,326.874237 117.403259,324.971222 
	C118.299721,324.269867 120.447433,323.824951 119.093185,322.217926 
	C117.898819,320.800629 115.994308,319.299927 114.033005,321.429810 
	C112.492836,323.102386 111.766434,325.534210 108.983948,326.430328 
	C104.273521,324.114685 102.067863,320.333954 101.583511,315.241760 
	C108.487015,308.802277 105.312004,301.272644 104.554581,294.218018 
	C103.634308,285.646515 102.200539,277.130371 101.001877,268.588470 
	C99.735603,259.564697 98.447792,250.543671 97.237587,241.512314 
	C96.111870,233.111435 95.110359,224.693939 93.992142,216.292007 
	C92.425507,204.520798 90.872177,192.747055 89.220993,180.987747 
	C88.066826,172.768082 86.448273,164.526855 86.120262,156.245651 
	C85.465622,139.718536 80.319206,124.964211 71.013779,111.379082 
	C67.211380,105.827896 64.307137,99.661499 60.938080,93.408707 
	C64.122017,91.329018 67.670624,90.599922 71.571182,89.833893 
	C72.181229,89.921837 72.419899,89.984688 72.988205,90.211967 
	C79.105995,97.541481 82.805214,105.973923 87.503487,113.799675 
	C90.932083,119.510567 91.198494,119.679321 97.088531,116.271233 
	C136.546310,93.440186 176.118942,70.807999 215.515808,47.871597 
	C221.022522,44.665653 221.031921,44.613716 217.966904,39.131729 
	C213.992050,32.022461 209.401810,25.256783 205.911438,17.466118 
	C205.296249,12.548286 203.874268,8.295448 201.170822,4.098999 
	C201.046616,3.489051 201.028152,3.238315 201.079865,2.615805 
	C201.271851,2.023134 201.393661,1.802236 201.757751,1.290670 
	C205.030594,1.000000 208.061188,1.000000 211.545898,1.000000 
	C213.546722,6.697496 217.137573,11.350329 220.116714,16.261003 
	C224.719284,23.847639 229.206970,31.539225 233.468384,39.275982 
	C237.103867,45.876392 242.942474,49.732670 248.121231,54.275330 
	C254.230789,59.634464 260.370361,65.016068 266.634308,70.228317 
	C278.574066,80.163429 290.184631,90.494087 301.955383,100.627625 
	C310.649017,108.112076 319.226135,115.777657 327.911987,123.285088 
	C339.151855,133.000046 350.149902,142.994766 361.748474,152.309875 
	C370.289886,159.169708 378.212708,166.795334 386.497681,173.979980 
	C398.246490,184.168442 410.114075,194.220047 421.846313,204.427383 
	C425.574921,207.671371 428.292542,210.931839 428.215515,216.904419 
	C427.772736,251.228912 428.002655,285.562042 427.993164,319.892242 
	C427.992584,322.006439 428.345367,324.191772 426.989075,326.529541 
	C426.292725,329.114594 424.254700,329.694397 422.609100,330.723694 
	C416.182556,334.743378 409.293762,338.011658 402.944855,342.837860 
	C397.539215,345.556091 393.100891,349.325684 388.294403,350.801971 
	C392.053741,350.754242 394.894196,354.123657 398.790100,355.977783 
	C399.987244,356.638336 400.723999,357.316132 401.526337,357.904083 
	C404.654755,360.196350 406.940216,360.503479 409.550964,356.584961 
	C414.667755,348.905029 422.032379,348.606384 428.303741,355.218536 
	C436.836212,364.214630 439.544556,383.091095 433.880127,394.084259 
	C429.339508,402.896423 420.202820,404.515472 413.496185,397.345367 
	C410.880249,394.548737 408.697449,393.647705 405.493164,395.893188 
	C404.686218,396.458679 403.691223,396.733398 402.286438,396.765411 
	C390.281586,403.345123 378.616486,409.840515 367.045929,416.500305 
	C354.759094,423.572296 342.578522,430.828583 330.320465,437.951019 
	C321.136566,443.287231 311.903412,448.538727 302.354553,453.947632 
	C297.772156,451.516937 297.680328,447.351837 297.881409,442.741119 
	C299.164062,440.163818 301.318024,439.133759 303.320953,437.990356 
	C334.539032,420.169800 365.522095,401.941315 397.096558,384.022186 
	C400.288239,382.532440 404.575745,382.279541 404.954407,378.569702 
	C405.352570,374.668488 400.939819,373.988190 398.386383,372.158447 
	C397.987946,371.872925 397.528015,371.690033 396.709106,371.482605 
	C390.598450,369.132019 385.401886,365.773895 380.219421,362.477417 
	C376.532196,360.132080 373.575348,360.078339 369.705109,362.316071 
	C341.149475,378.826447 312.542053,395.248138 283.966431,411.724609 
	C281.649017,413.060791 279.276001,414.243469 276.460175,415.359375 
	C265.181824,414.793945 258.240112,420.939484 252.301224,429.485779 
	C249.616226,431.310333 245.526901,432.184448 249.332794,436.737488 
	C249.931030,441.098511 250.030655,445.011017 246.381027,448.103699 
z"/>
<path fill="#294464" opacity="1.000000" stroke="none" 
	d="
M299.200348,441.695709 
	C299.090881,446.009003 300.809509,449.607941 301.821045,453.740234 
	C305.322327,475.646729 305.301331,496.361603 286.942200,512.647827 
	C281.645081,513.000000 276.290131,513.000000 270.467590,513.000000 
	C267.660248,508.395660 262.622162,506.559296 259.578430,502.395538 
	C252.892502,493.249298 249.351181,483.063354 247.005875,472.245850 
	C245.338898,464.557068 246.230881,456.760193 245.969391,448.548523 
	C247.411926,444.511658 247.824295,440.733887 248.024506,436.518372 
	C247.273087,433.339050 248.443390,431.241821 250.665497,429.189270 
	C252.497116,426.805420 254.020325,424.643860 255.571548,422.502594 
	C260.427948,415.798950 267.142700,413.415588 275.621216,414.124512 
	C279.050812,413.645081 281.654205,414.566437 283.889252,416.446625 
	C291.751251,423.060181 298.060059,430.664307 299.200348,441.695709 
z"/>
<path fill="#F43834" opacity="1.000000" stroke="none" 
	d="
M73.272217,91.375168 
	C73.075058,91.058121 72.760132,90.943779 72.599976,90.894699 
	C71.053841,89.682831 72.319702,88.802025 72.829712,87.944672 
	C75.696648,83.125137 74.962242,81.695961 69.445038,81.543594 
	C68.786995,81.525406 68.137085,81.514114 67.254936,81.065506 
	C66.650909,76.704681 68.715881,73.956802 72.082985,71.988525 
	C84.593925,64.675133 97.092232,57.339737 109.636002,50.082993 
	C127.529373,39.731434 145.465012,29.452955 163.369919,19.121300 
	C172.685699,13.745831 181.978577,8.330575 191.264145,2.903088 
	C191.802582,2.588373 192.181961,2.001560 192.317688,1.270687 
	C195.030594,1.000000 198.061188,1.000000 201.545898,1.000000 
	C202.000000,1.000000 202.339722,1.269177 202.221924,1.451078 
	C201.882126,1.914347 201.708725,2.223003 201.654785,2.816617 
	C205.659637,6.492751 207.184189,10.905467 207.091568,16.413965 
	C207.165390,21.112587 203.840118,22.750895 200.880325,24.535343 
	C186.474182,33.220814 171.785278,41.422237 157.243225,49.875732 
	C134.350128,63.183796 111.334656,76.280914 88.446541,89.598274 
	C86.141586,90.939400 83.853966,92.345558 81.272949,93.080742 
	C78.483871,93.875191 75.675789,94.360687 73.272217,91.375168 
z"/>
<path fill="#294464" opacity="1.000000" stroke="none" 
	d="
M401.689911,342.271667 
	C405.374115,337.367371 410.858521,335.839539 415.404205,332.945923 
	C418.868591,330.740601 422.614441,328.977478 426.597565,326.986115 
	C439.271790,331.453033 445.530243,341.698395 449.757965,352.906952 
	C455.769409,368.844513 457.035675,385.494263 452.911285,402.216125 
	C451.327484,408.637512 448.508636,414.428558 444.053772,419.684113 
	C437.389862,427.545807 425.141815,428.247101 416.823395,421.170227 
	C409.431549,414.881622 404.930603,406.688385 401.942383,397.170166 
	C403.496033,393.703064 406.996735,393.327972 409.444641,391.460358 
	C410.486908,390.665222 411.267731,391.240967 411.893036,392.184601 
	C412.627411,393.292847 413.319580,394.441315 414.161499,395.464081 
	C420.152130,402.741608 427.855103,401.901245 432.060730,393.537903 
	C437.294525,383.129913 435.011475,365.204895 427.372681,356.730560 
	C421.320190,350.016022 413.847931,350.634766 410.266907,358.885986 
	C408.069458,363.949219 406.004486,363.551117 402.545288,360.872192 
	C401.117554,359.766479 399.198883,359.339661 398.049286,357.376221 
	C395.544830,351.370087 397.919708,346.840729 401.689911,342.271667 
z"/>
<path fill="#294464" opacity="1.000000" stroke="none" 
	d="
M117.329880,360.638733 
	C117.246796,365.057800 115.868111,369.105133 116.947647,373.537109 
	C114.911018,380.212158 114.115334,386.978149 110.609100,392.895569 
	C106.845284,399.247742 102.440865,404.329987 94.461250,405.393677 
	C88.141258,406.236115 83.113007,403.845184 78.662987,400.062927 
	C68.722397,391.613922 64.295189,380.031616 61.456505,367.779236 
	C57.877327,352.330627 57.757111,336.896393 64.209839,322.122803 
	C68.721130,311.794220 75.087532,305.072205 86.099617,306.007904 
	C92.479752,306.550049 97.141182,310.084595 101.519028,314.778870 
	C103.961609,318.466003 106.117699,322.005402 108.561218,325.700195 
	C110.707954,326.225830 111.396927,327.457092 111.176727,329.592621 
	C111.267540,333.901337 113.128365,337.375061 114.697098,341.179138 
	C119.193687,347.196198 120.208107,353.501953 117.329880,360.638733 
z"/>
<path fill="#D1CFCF" opacity="1.000000" stroke="none" 
	d="
M66.673218,80.978973 
	C67.769638,80.570877 68.571800,80.390877 69.296188,80.047043 
	C72.108818,78.711983 74.549187,79.190865 76.202866,81.812912 
	C77.901787,84.506683 76.983803,86.853310 74.608131,88.740318 
	C73.966820,89.249718 73.325523,89.759140 72.562012,90.557083 
	C68.746140,91.185509 65.837502,95.247589 61.253345,93.084503 
	C57.707630,90.078842 58.096264,87.108467 61.143990,84.448120 
	C62.675259,83.111481 64.597687,82.222969 66.673218,80.978973 
z"/>
<path fill="#000000" opacity="1.000000" stroke="none" 
	d="
M73.045334,91.424919 
	C76.454178,92.747238 79.750084,92.383888 82.931404,90.559814 
	C97.052544,82.463188 111.173012,74.365257 125.269852,66.226440 
	C139.221710,58.171333 153.155350,50.084507 167.077576,41.978287 
	C179.034958,35.016109 190.944931,27.972197 202.929810,21.057930 
	C204.622055,20.081650 205.678345,18.780197 206.791031,16.969696 
	C212.127380,25.434330 217.050308,34.088127 222.190399,42.610958 
	C223.475891,44.742428 223.088943,45.868069 221.141663,46.987415 
	C205.644318,55.895744 190.147934,64.805832 174.670303,73.748352 
	C158.063965,83.342995 141.490952,92.995323 124.879219,102.580551 
	C114.012688,108.850708 103.062645,114.977516 92.252365,121.342361 
	C90.433594,122.413216 89.757965,121.528458 89.121651,120.408867 
	C83.713051,110.892509 78.374886,101.336113 73.045334,91.424919 
z"/>
<path fill="#000000" opacity="1.000000" stroke="none" 
	d="
M299.395721,442.010315 
	C295.081787,432.312561 290.655365,422.914581 281.390320,416.961761 
	C279.889587,415.997528 278.133209,415.431213 276.283630,414.413696 
	C295.579895,403.202728 314.891235,391.909668 334.307953,380.810852 
	C346.727081,373.711914 359.398743,366.970398 371.381744,359.109039 
	C373.973419,357.408783 376.112122,357.622467 378.591736,359.159637 
	C384.445984,362.788757 390.386902,366.278107 396.618774,369.975952 
	C399.682495,374.602783 401.014923,379.250031 398.401428,384.721405 
	C384.788177,392.862152 371.462616,400.628357 358.135864,408.392487 
	C344.540283,416.313263 330.960449,424.261292 317.339264,432.137756 
	C311.526245,435.499146 305.625824,438.709351 299.395721,442.010315 
z"/>
<path fill="#F43935" opacity="1.000000" stroke="none" 
	d="
M309.777313,265.000244 
	C318.011810,261.936493 325.300568,257.900482 331.978455,252.273865 
	C339.574280,245.581177 347.788727,240.500671 357.629486,237.735626 
	C365.910095,234.874878 372.973358,230.389938 380.028809,225.321686 
	C384.282745,219.244247 389.297760,217.746185 395.778442,220.779846 
	C397.986908,224.209427 401.352478,226.396729 401.939301,230.730728 
	C404.617249,237.000031 400.399994,242.742401 392.398865,243.756653 
	C383.706238,246.774689 376.419983,251.573654 368.982117,256.682434 
	C367.643768,259.043610 366.018738,260.592957 363.857422,261.614075 
	C357.644379,264.549469 352.388885,269.349731 345.167175,271.055542 
	C339.579224,271.317200 335.970825,274.911011 331.926636,277.658722 
	C327.661224,278.243011 324.691498,281.342041 321.029968,283.715210 
	C316.728241,290.281464 310.365723,292.628693 303.412628,293.755005 
	C301.464874,294.070496 299.447266,293.576813 298.126038,291.241119 
	C295.322693,288.253265 293.044769,285.426208 292.479218,281.296082 
	C290.313293,278.342834 291.749542,275.846405 293.470673,274.005859 
	C297.784058,269.393250 302.851532,265.822632 309.777313,265.000244 
z"/>
<path fill="#000000" opacity="1.000000" stroke="none" 
	d="
M174.750031,86.757523 
	C178.789520,83.359772 180.195114,85.186844 181.000656,89.134293 
	C183.577927,101.763870 186.316971,114.360359 188.929062,126.982971 
	C189.225357,128.414810 188.829910,129.285721 187.211533,130.380234 
	C179.727112,135.441956 171.609406,139.369019 163.899689,144.008408 
	C160.463501,146.076157 156.912033,147.961533 153.551804,150.143616 
	C150.590439,152.066681 149.478027,152.276474 148.860107,147.963898 
	C147.026505,135.166458 144.591858,122.453606 142.288818,109.726379 
	C141.854111,107.324051 141.688980,105.562454 144.336899,104.107498 
	C154.458359,98.546120 164.444656,92.738777 174.750031,86.757523 
z"/>
<path fill="#000000" opacity="1.000000" stroke="none" 
	d="
M202.687256,70.730621 
	C210.663452,66.067673 218.333694,61.626873 226.171585,57.089012 
	C229.233841,60.984127 227.957138,65.974709 228.824463,70.408211 
	C230.692596,79.957344 230.890244,89.787712 232.945312,99.350906 
	C233.491608,101.893120 233.025620,104.403656 230.533081,105.841888 
	C221.176102,111.240997 211.782913,116.577766 202.375427,121.888535 
	C200.529953,122.930336 199.442245,123.603951 198.816696,120.180527 
	C196.353546,106.700607 193.338745,93.319252 190.369232,79.936699 
	C189.967392,78.125740 190.767593,77.657799 191.954254,76.984352 
	C195.446259,75.002571 198.907806,72.967186 202.687256,70.730621 
z"/>
<path fill="#000000" opacity="1.000000" stroke="none" 
	d="
M198.002579,171.950531 
	C198.993362,176.617355 200.037689,180.837616 200.939514,185.088104 
	C201.259247,186.595093 200.240997,187.321320 198.943741,188.054962 
	C192.660675,191.608322 186.491699,195.363251 180.213058,198.924728 
	C179.116547,199.546722 178.047623,200.506683 176.361938,198.987198 
	C169.558853,192.854980 162.470215,187.040878 155.553375,181.032928 
	C152.592316,178.460968 154.611481,174.457458 153.057602,171.396378 
	C152.509995,170.317581 153.091949,168.966843 152.389664,167.620682 
	C151.242661,165.422058 152.265152,163.968140 154.616974,162.649002 
	C166.994186,155.706665 179.219589,148.493668 191.622314,141.302353 
	C193.766708,151.461227 195.883316,161.488556 198.002579,171.950531 
z"/>
<path fill="#000000" opacity="1.000000" stroke="none" 
	d="
M221.312531,124.286583 
	C225.759171,121.657883 229.894867,119.248032 234.528854,116.547813 
	C236.774765,127.092598 237.695526,137.333328 238.923782,147.512756 
	C239.312241,150.732193 239.463516,154.210419 240.331879,157.108856 
	C241.839050,162.139435 240.513535,164.307907 236.095947,166.610748 
	C227.715256,170.979462 219.711884,176.071976 211.425629,180.937897 
	C208.799316,168.150955 206.395096,155.707977 203.554794,143.365356 
	C203.098236,141.381409 203.601913,139.171478 202.156998,137.247452 
	C201.324005,136.138229 202.383682,134.760361 203.674896,134.048355 
	C209.448837,130.864426 215.225739,127.685898 221.312531,124.286583 
z"/>
<path fill="#000000" opacity="1.000000" stroke="none" 
	d="
M369.000336,201.015503 
	C369.000336,210.925949 369.000336,220.338806 369.000336,230.622055 
	C356.975494,223.470734 345.744232,216.678253 334.364380,210.144592 
	C332.641144,209.155197 331.975922,208.282898 331.981201,206.441162 
	C332.018402,193.497864 332.000946,180.554413 332.000946,167.167892 
	C343.954163,174.138000 355.506531,180.978149 367.195892,187.575592 
	C368.895264,188.534729 369.031738,189.519012 369.012360,191.033005 
	C368.971832,194.194168 369.000244,197.356216 369.000336,201.015503 
z"/>
<path fill="#000000" opacity="1.000000" stroke="none" 
	d="
M258.771973,410.756866 
	C249.862076,415.983826 241.229065,420.951630 232.611252,425.945679 
	C231.973358,426.315338 231.740372,426.896271 230.668228,426.261078 
	C218.909943,419.294434 207.072357,412.461670 195.360031,405.652832 
	C206.417984,399.153687 217.408737,392.759430 228.319305,386.231201 
	C230.760773,384.770416 232.744797,385.122375 235.031082,386.483917 
	C245.808014,392.901764 256.643860,399.220673 267.400360,405.540558 
	C265.083374,407.662415 262.027527,409.016083 258.771973,410.756866 
z"/>
<path fill="#000000" opacity="1.000000" stroke="none" 
	d="
M205.981049,369.998291 
	C210.607025,372.582062 214.857590,375.118866 219.701584,378.009857 
	C207.716965,385.091644 196.316147,391.889618 184.837891,398.554169 
	C182.793060,399.741455 181.141556,397.659119 179.656662,396.814636 
	C169.051346,390.783295 158.600800,384.479797 147.657471,378.000214 
	C153.311447,374.700012 158.772537,371.478577 164.266968,368.315063 
	C169.560272,365.267334 175.077881,362.560089 180.121613,359.148438 
	C182.696213,357.406952 184.512939,357.550140 186.876633,358.963837 
	C193.088226,362.678864 199.358658,366.295502 205.981049,369.998291 
z"/>
<path fill="#000000" opacity="1.000000" stroke="none" 
	d="
M285.000305,227.920715 
	C285.000305,216.819626 285.000305,206.207733 285.000305,194.964813 
	C296.527222,201.820770 307.525177,208.480621 318.676910,214.872086 
	C320.427002,215.875092 321.020233,216.796570 321.015686,218.612366 
	C320.983246,231.546341 320.998413,244.480408 320.998413,257.751160 
	C310.455750,251.692719 300.496674,245.453827 290.052307,240.175003 
	C284.432281,237.334503 284.882782,233.086929 285.000305,227.920715 
z"/>
<path fill="#000000" opacity="1.000000" stroke="none" 
	d="
M312.253937,155.762146 
	C320.429321,158.422455 321.649017,164.066574 321.161102,171.549606 
	C320.507111,181.580185 320.999176,191.685501 320.999176,202.597565 
	C312.095093,197.530640 304.197357,192.187881 295.617401,188.383926 
	C286.373566,184.285629 283.813812,178.105957 284.797485,168.483337 
	C285.737762,159.285294 285.000305,149.915771 285.000305,140.242081 
	C294.168304,145.424759 303.076202,150.460419 312.253937,155.762146 
z"/>
<path fill="#000000" opacity="1.000000" stroke="none" 
	d="
M117.394707,360.994843 
	C117.527687,354.574585 115.939247,348.380798 115.074234,341.712555 
	C121.544006,338.778259 126.974861,334.348633 133.126144,331.190918 
	C134.893799,330.283569 136.249969,329.506042 138.046112,330.556366 
	C149.262512,337.115723 160.470566,343.689270 172.212418,350.569244 
	C166.485016,353.843750 161.002899,356.937744 155.560715,360.100403 
	C149.725403,363.491547 143.921768,366.937378 138.116959,370.380646 
	C136.311508,371.451599 134.944305,370.937195 133.199631,369.851044 
	C128.169083,366.719330 122.925148,363.930359 117.394707,360.994843 
z"/>
<path fill="#000000" opacity="1.000000" stroke="none" 
	d="
M221.516968,225.062469 
	C218.241745,217.683563 217.821396,209.886719 216.017059,202.407745 
	C215.903870,201.938538 216.106888,201.396500 216.010117,200.919327 
	C214.197968,191.984375 214.267822,192.124786 222.064178,187.948166 
	C228.981873,184.242233 235.708832,180.180267 242.855957,176.082855 
	C244.929001,191.643890 246.957092,206.867584 248.920013,222.518204 
	C247.522324,224.239807 246.067810,223.667480 244.742889,223.060699 
	C237.955292,219.952225 231.431412,220.092438 225.141541,224.375519 
	C224.191696,225.022324 223.055527,225.330063 221.516968,225.062469 
z"/>
<path fill="#000000" opacity="1.000000" stroke="none" 
	d="
M261.242798,80.741203 
	C263.305267,82.620720 265.127808,84.215691 267.022552,85.746872 
	C271.381256,89.269257 275.333099,92.900841 274.217804,99.913055 
	C273.192719,106.358192 273.999939,113.094765 273.999939,120.377579 
	C264.253571,114.825203 255.063889,109.630150 245.932480,104.334587 
	C244.850510,103.707123 244.126236,102.675797 243.948105,101.128883 
	C242.461975,88.222420 240.833359,75.332367 239.179550,61.882782 
	C246.632690,68.239571 253.810913,74.361893 261.242798,80.741203 
z"/>
<path fill="#000000" opacity="1.000000" stroke="none" 
	d="
M253.793610,163.946381 
	C250.180252,161.234756 252.066025,157.339615 251.356247,154.136353 
	C249.467148,145.610535 248.896042,136.776962 248.065582,128.040588 
	C247.764450,124.872681 245.977097,121.812149 247.316315,118.415756 
	C255.376328,122.972191 263.442749,127.558235 271.540405,132.088425 
	C273.199371,133.016525 274.111115,133.951584 274.081665,136.184464 
	C273.913025,148.968063 273.999695,161.755035 273.999695,175.604660 
	C267.010315,171.517441 260.602173,167.770126 253.793610,163.946381 
z"/>
<path fill="#000000" opacity="1.000000" stroke="none" 
	d="
M310.000488,264.669098 
	C306.884338,266.975922 303.785706,269.413696 300.274048,270.820221 
	C295.682983,272.659088 293.604431,276.113190 292.195984,280.759552 
	C291.634155,281.445099 291.111938,281.792206 290.558380,282.078827 
	C286.803314,284.023346 283.336761,288.520966 279.259094,287.263824 
	C275.572998,286.127441 272.812500,281.988892 269.337982,279.026642 
	C266.263428,276.472992 266.917847,273.033752 266.628571,270.017151 
	C266.144562,264.970001 264.094299,260.017090 265.772736,254.488312 
	C267.036438,253.591446 268.182983,253.211472 268.970673,252.456909 
	C276.994995,244.769928 284.071960,249.055649 291.439178,253.823776 
	C297.359833,257.655701 303.687347,260.859070 310.000488,264.669098 
z"/>
<path fill="#000000" opacity="1.000000" stroke="none" 
	d="
M100.046295,129.998016 
	C110.665115,123.942017 120.910652,117.936935 131.510269,111.724312 
	C133.381546,123.255241 135.197403,134.400253 136.994141,145.548340 
	C137.431381,148.261215 137.315460,151.184784 138.325867,153.654770 
	C139.780426,157.210556 139.104660,158.889862 135.483597,160.256912 
	C133.947662,160.836777 133.405045,161.843094 131.662643,160.296829 
	C122.379158,152.058350 112.796135,144.156113 103.565056,135.861191 
	C101.952141,134.411835 98.481415,133.600800 100.046295,129.998016 
z"/>
<path fill="#000000" opacity="1.000000" stroke="none" 
	d="
M292.770782,108.273300 
	C301.595459,115.785164 310.184082,123.020798 318.726257,130.310806 
	C319.807373,131.233459 321.080505,132.051254 321.031189,133.893402 
	C320.916687,138.170670 320.994720,142.453094 320.994720,147.588303 
	C315.627502,144.477341 310.927277,141.751068 306.225189,139.028000 
	C299.966095,135.403229 293.761353,131.678177 287.408325,128.226166 
	C285.709869,127.303299 284.955109,126.392563 284.973175,124.489243 
	C285.042389,117.201057 285.001190,109.911827 285.001190,102.412682 
	C288.298279,103.571579 290.383972,105.826973 292.770782,108.273300 
z"/>
<path fill="#000000" opacity="1.000000" stroke="none" 
	d="
M260.766968,181.275269 
	C264.433960,183.377762 267.872864,185.144516 271.224945,187.062897 
	C272.977844,188.066025 274.070679,189.449341 274.050598,191.790543 
	C273.942383,204.400940 273.999390,217.012756 273.999390,230.066147 
	C268.871277,228.509033 264.617126,225.812363 260.946930,222.697449 
	C258.596588,220.702698 259.569458,216.634781 259.162506,213.568085 
	C257.842926,203.624069 256.803009,193.644791 255.069351,183.752777 
	C254.787369,182.143845 255.029724,180.443008 255.029724,178.490799 
	C257.193390,178.782364 258.878754,179.817474 260.766968,181.275269 
z"/>
<path fill="#000000" opacity="1.000000" stroke="none" 
	d="
M120.279915,233.286896 
	C117.032646,235.143402 114.087494,236.770691 111.133980,238.382614 
	C108.812538,239.649582 108.211655,238.915070 107.921997,236.327164 
	C106.606377,224.572708 105.010658,212.849594 103.461266,200.687820 
	C111.833191,205.419525 120.036095,209.819412 127.978706,214.647507 
	C131.771347,216.952942 130.786591,227.485855 126.914848,229.564484 
	C124.790932,230.704742 122.689819,231.887497 120.279915,233.286896 
z"/>
<path fill="#000000" opacity="1.000000" stroke="none" 
	d="
M368.122620,340.012817 
	C362.950104,336.962311 358.356323,333.579498 353.327606,331.067383 
	C348.414520,328.613098 343.895416,325.631226 338.621765,322.922516 
	C349.363068,316.730164 359.446930,310.916809 369.999390,304.833344 
	C369.999390,316.544495 370.017761,327.511841 369.954132,338.478729 
	C369.950256,339.143280 370.913757,341.327148 368.122620,340.012817 
z"/>
<path fill="#000000" opacity="1.000000" stroke="none" 
	d="
M257.643127,314.728455 
	C263.160217,311.414246 268.364197,308.311890 273.890015,305.017670 
	C273.890015,317.186920 273.890015,328.784088 273.890015,340.822113 
	C266.370392,336.538269 258.934631,332.482513 251.717636,328.069000 
	C249.820068,326.908478 247.791306,325.900055 245.934982,324.575928 
	C243.730453,323.003418 243.468262,322.298431 245.786392,321.044067 
	C249.614395,318.972687 253.480209,316.971252 257.643127,314.728455 
z"/>
<path fill="#000000" opacity="1.000000" stroke="none" 
	d="
M331.954163,278.028748 
	C336.875916,279.363159 340.770172,282.610992 345.093842,285.035675 
	C350.963348,288.327271 356.765411,291.739166 363.007843,295.336548 
	C352.738129,301.288727 342.739777,307.083588 332.005463,313.305054 
	C332.005463,301.310883 332.005463,290.112305 332.027832,278.443665 
	C332.050171,277.973633 331.958710,277.982971 331.954163,278.028748 
z"/>
<path fill="#000000" opacity="1.000000" stroke="none" 
	d="
M338.655182,336.261169 
	C346.859985,341.147858 354.750214,345.817719 362.902832,350.642914 
	C352.775635,356.479767 342.777679,362.242126 332.333252,368.261841 
	C332.333252,356.311371 332.333252,344.808563 332.333252,332.902069 
	C334.460297,334.014648 336.400452,335.029480 338.655182,336.261169 
z"/>
<path fill="#000000" opacity="1.000000" stroke="none" 
	d="
M249.997177,374.000732 
	C258.116302,369.438293 265.858978,364.923584 273.853394,360.262085 
	C273.853394,372.162170 273.853394,383.732452 273.853394,395.861267 
	C266.357056,391.580933 259.041931,387.406586 251.730667,383.225433 
	C251.033005,382.826447 250.299637,382.457397 249.686432,381.949402 
	C247.951508,380.511932 244.331024,380.514954 244.334244,378.296814 
	C244.337509,376.033508 247.771515,375.466370 249.997177,374.000732 
z"/>
<path fill="#000000" opacity="1.000000" stroke="none" 
	d="
M407.770203,282.732361 
	C410.731598,281.036346 413.425385,279.607544 416.537415,277.956879 
	C416.537415,289.513275 416.537415,300.957397 416.537415,312.832581 
	C406.522369,307.121948 396.407135,301.354187 386.075134,295.462830 
	C393.362701,291.223999 400.432648,287.111755 407.770203,282.732361 
z"/>
<path fill="#000000" opacity="1.000000" stroke="none" 
	d="
M204.709534,314.290771 
	C209.684052,317.232971 214.363602,319.939087 219.741180,323.048859 
	C209.306091,329.098145 199.398026,334.841949 189.199707,340.753998 
	C189.199707,328.895477 189.199707,317.352753 189.199707,305.321350 
	C194.339752,308.271759 199.377136,311.163208 204.709534,314.290771 
z"/>
<path fill="#000000" opacity="1.000000" stroke="none" 
	d="
M218.776657,336.724854 
	C221.205750,335.419281 223.367432,334.381805 225.812027,333.208557 
	C225.812027,344.860718 225.812027,356.164154 225.812027,368.125275 
	C215.418396,362.142120 205.414703,356.383423 195.259125,350.537323 
	C203.074280,345.984619 210.791763,341.488800 218.776657,336.724854 
z"/>
<path fill="#000000" opacity="1.000000" stroke="none" 
	d="
M154.712006,318.717651 
	C162.392731,314.277710 169.775620,310.068542 177.673538,305.565765 
	C177.673538,317.363586 177.673538,328.531586 177.673538,340.378784 
	C167.556839,334.542175 157.760086,328.890167 147.505417,322.973969 
	C150.070648,321.479309 152.242416,320.213867 154.712006,318.717651 
z"/>
<path fill="#000000" opacity="1.000000" stroke="none" 
	d="
M237.000168,336.568237 
	C236.919922,334.445099 236.693298,332.525726 239.362213,334.094971 
	C248.499954,339.467651 257.620850,344.868958 267.340240,350.608978 
	C257.145111,356.510071 247.276596,362.222107 237.000122,368.170288 
	C237.000122,357.274933 237.000122,347.139557 237.000168,336.568237 
z"/>
<path fill="#000000" opacity="1.000000" stroke="none" 
	d="
M285.000305,376.006104 
	C285.000305,370.753021 285.000305,365.998444 285.000305,360.535461 
	C295.471527,366.604401 305.265411,372.280731 315.330078,378.114014 
	C305.064270,384.026733 295.395020,389.595856 285.000305,395.582825 
	C285.000305,388.671387 285.000305,382.587982 285.000305,376.006104 
z"/>
<path fill="#000000" opacity="1.000000" stroke="none" 
	d="
M305.706909,359.279297 
	C300.674957,356.345337 295.943756,353.641174 290.657959,350.620026 
	C300.915833,344.700623 310.678040,339.067200 320.751038,333.254456 
	C320.751038,344.832947 320.751038,356.127167 320.751038,367.762939 
	C315.739532,364.957336 310.873596,362.233215 305.706909,359.279297 
z"/>
<path fill="#000000" opacity="1.000000" stroke="none" 
	d="
M307.998688,319.054749 
	C310.010498,320.615051 313.740021,320.454254 313.606903,322.811859 
	C313.490662,324.870514 310.308929,325.803009 308.288910,326.957153 
	C300.765839,331.255341 293.226440,335.524933 285.229370,340.068756 
	C285.229370,328.375366 285.229370,317.363831 285.229370,305.774902 
	C292.812714,310.372467 300.685913,313.877441 307.998688,319.054749 
z"/>
<path fill="#000000" opacity="1.000000" stroke="none" 
	d="
M381.000824,261.056213 
	C381.000824,257.467896 381.000824,254.368637 381.000824,250.726074 
	C390.605713,256.122467 399.669861,261.173706 408.671967,266.333130 
	C409.633331,266.884094 411.069489,267.799683 408.807312,269.067444 
	C399.610107,274.221741 390.501404,279.533905 381.000824,284.994324 
	C381.000824,276.784241 381.000824,269.164764 381.000824,261.056213 
z"/>
<path fill="#000000" opacity="1.000000" stroke="none" 
	d="
M404.671631,319.262085 
	C406.699799,320.571442 408.417694,321.664917 410.613617,323.062683 
	C400.564911,328.869232 391.039948,334.373138 381.129852,340.099609 
	C381.129852,328.499969 381.129852,317.568512 381.129852,306.327332 
	C389.442932,309.654022 396.334717,315.414276 404.671631,319.262085 
z"/>
<path fill="#2B4565" opacity="1.000000" stroke="none" 
	d="
M259.130615,301.104858 
	C251.666901,305.409546 244.529602,309.545532 236.529663,314.181427 
	C236.529663,307.216400 236.515427,301.146484 236.551102,295.076874 
	C236.554779,294.451996 236.707352,293.384033 237.042145,293.271851 
	C241.788361,291.681915 244.543289,288.171326 246.831177,283.953613 
	C247.548996,282.630341 248.910599,284.108337 249.802475,284.604401 
	C254.002747,286.940491 258.150360,289.372131 262.297882,291.801910 
	C267.466461,294.829926 267.489685,296.116608 262.467743,299.180298 
	C261.476135,299.785217 260.461182,300.351868 259.130615,301.104858 
z"/>
<path fill="#000000" opacity="1.000000" stroke="none" 
	d="
M149.672089,229.751801 
	C154.187241,231.342010 152.099289,235.464767 152.751419,238.293961 
	C155.252762,249.145493 156.790649,260.219513 158.662979,271.214783 
	C158.793411,271.980713 159.047546,273.035034 158.675797,273.515472 
	C157.781723,274.670898 156.952545,273.389648 156.219940,272.998169 
	C151.961441,270.722717 148.127365,267.704132 143.601868,265.878052 
	C141.935471,265.205627 141.978058,263.633301 141.984192,262.092712 
	C142.017365,253.767197 142.055725,245.440964 141.979080,237.116028 
	C141.932449,232.051285 146.415741,231.847351 149.672089,229.751801 
z"/>
<path fill="#000000" opacity="1.000000" stroke="none" 
	d="
M396.346283,220.983917 
	C390.426239,220.246658 385.341797,221.365570 380.525421,224.985764 
	C380.165222,215.204926 380.165222,205.411819 380.165222,195.241989 
	C388.198486,199.721863 396.227020,203.991898 404.041382,208.623322 
	C410.150635,212.244186 409.859619,212.209671 404.097504,216.473236 
	C401.723755,218.229630 398.887695,218.949646 396.346283,220.983917 
z"/>
<path fill="#000000" opacity="1.000000" stroke="none" 
	d="
M113.027985,275.728668 
	C113.113327,270.357269 111.947769,265.605499 111.115570,260.123383 
	C117.231659,263.665527 123.069283,267.021210 128.876755,270.428253 
	C130.253342,271.235840 130.004303,272.687134 130.002151,274.002716 
	C129.996948,277.166473 130.023499,280.330414 129.994003,283.493896 
	C129.966125,286.485168 131.080719,290.590149 129.561859,292.222748 
	C126.843605,295.144531 122.573303,296.671356 118.855164,298.594513 
	C116.814751,299.649872 116.104431,298.773712 115.928719,296.460114 
	C115.458916,290.274200 114.656387,284.112762 113.923935,277.948975 
	C113.850891,277.334320 113.351959,276.770294 113.027985,275.728668 
z"/>
<path fill="#000000" opacity="1.000000" stroke="none" 
	d="
M392.320404,243.961075 
	C396.638184,240.899918 402.120850,238.705017 402.063293,231.439209 
	C406.801331,228.340363 411.494110,225.633087 416.666382,222.649185 
	C416.666382,234.531876 416.666382,245.885742 416.666382,257.838867 
	C408.626312,253.248444 400.636902,248.686935 392.320404,243.961075 
z"/>
<path fill="#000000" opacity="1.000000" stroke="none" 
	d="
M98.977875,165.270386 
	C96.869118,158.592957 97.540131,151.960175 95.470840,144.644531 
	C105.800110,151.840515 113.548515,160.419739 123.037041,167.509048 
	C116.200478,171.616318 109.584702,175.693726 102.852875,179.569565 
	C100.954979,180.662262 99.959267,179.039780 100.078362,177.461319 
	C100.380043,173.463028 98.310440,169.724304 98.977875,165.270386 
z"/>
<path fill="#000000" opacity="1.000000" stroke="none" 
	d="
M297.708191,290.967407 
	C304.560669,294.502686 309.621887,290.086487 314.821808,287.480133 
	C316.617157,286.580292 318.540131,285.552124 320.535522,284.150574 
	C320.854004,293.468628 320.854004,302.919403 320.854004,312.649780 
	C310.874451,306.929504 301.027344,301.285126 291.117676,295.604889 
	C292.686462,293.287079 295.919434,293.415253 297.708191,290.967407 
z"/>
<path fill="#000000" opacity="1.000000" stroke="none" 
	d="
M357.848633,237.500336 
	C349.594025,242.536957 341.199707,247.259293 332.442657,251.957001 
	C332.079926,242.364838 332.079926,232.797302 332.079926,222.366470 
	C341.092682,227.577957 349.400787,232.381989 357.848633,237.500336 
z"/>
<path fill="#000000" opacity="1.000000" stroke="none" 
	d="
M344.984314,271.389160 
	C349.982361,266.429810 356.661194,264.219482 362.308777,260.322754 
	C364.136658,259.061554 366.181396,258.114685 368.481262,257.012787 
	C368.835571,266.242798 368.835571,275.484070 368.835571,285.461365 
	C360.610107,280.679077 352.887024,276.188873 344.984314,271.389160 
z"/>
<path fill="#000000" opacity="1.000000" stroke="none" 
	d="
M142.003723,311.112610 
	C141.998032,298.248901 142.514313,298.994843 152.981506,291.750183 
	C161.504761,285.850983 165.809464,292.967773 172.438705,295.166351 
	C162.136887,301.193695 152.442062,306.867126 142.738419,312.525452 
	C142.642212,312.581573 142.344269,312.483093 142.287552,312.377686 
	C142.148285,312.118835 142.095032,311.813690 142.003723,311.112610 
z"/>
<path fill="#000000" opacity="1.000000" stroke="none" 
	d="
M225.756882,307.736938 
	C225.951401,309.531433 225.951401,311.016266 225.951401,313.083466 
	C215.490448,307.110992 205.394180,301.346710 195.043777,295.437378 
	C201.268143,291.863922 207.243820,288.433258 213.586670,284.979828 
	C215.171967,285.306213 215.945862,286.213593 216.315659,287.305725 
	C218.696991,294.338837 222.936600,300.511993 225.756882,307.736938 
z"/>
<path fill="#2B4565" opacity="1.000000" stroke="none" 
	d="
M221.085052,225.339874 
	C229.691971,217.857315 238.636856,216.574860 248.499542,222.928619 
	C249.037735,224.170044 248.224487,224.696930 247.324799,225.215912 
	C239.430023,229.769882 231.543762,234.338654 223.363266,239.071823 
	C221.831528,234.539413 220.667786,230.304184 221.085052,225.339874 
z"/>
<path fill="#000000" opacity="1.000000" stroke="none" 
	d="
M211.284775,272.505005 
	C203.888092,276.969055 196.827515,281.078430 189.001144,285.633514 
	C189.001144,281.028320 189.251083,277.249969 188.919312,273.523407 
	C188.669525,270.717499 191.051971,270.153168 192.354767,269.439240 
	C196.598419,267.113617 200.798019,264.744812 204.799149,262.024780 
	C206.610474,260.793427 208.394424,260.849243 210.564972,262.105164 
	C213.355957,265.364960 213.945557,268.656952 211.284775,272.505005 
z"/>
<path fill="#000000" opacity="1.000000" stroke="none" 
	d="
M164.025543,237.333405 
	C167.540207,236.318634 169.685822,239.239944 172.542313,240.323853 
	C176.755417,241.922531 178.884613,245.023880 178.117294,250.057175 
	C177.525009,253.942261 178.036926,257.990509 177.975723,261.964935 
	C177.957489,263.148651 178.134018,264.131927 176.700241,265.234222 
	C170.958099,269.648895 169.931534,269.622955 168.515976,262.948944 
	C167.043228,256.005341 166.041306,248.953735 165.086594,241.915024 
	C164.885269,240.430603 164.401886,239.122620 164.025543,237.333405 
z"/>
<path fill="#000000" opacity="1.000000" stroke="none" 
	d="
M112.258110,187.214630 
	C118.214813,183.744904 123.890755,180.518997 129.855316,177.129044 
	C129.855316,185.608704 129.855316,193.645218 129.855316,202.465012 
	C122.265083,198.112427 115.119713,194.014954 107.687675,189.753098 
	C109.460846,188.804581 110.719093,188.131500 112.258110,187.214630 
z"/>
<path fill="#000000" opacity="1.000000" stroke="none" 
	d="
M191.768738,212.271729 
	C187.217377,209.111542 187.807159,207.072845 192.369431,205.017151 
	C196.140060,203.318146 199.612091,200.956451 203.556763,198.693130 
	C205.522400,208.188400 207.407104,217.292679 209.493240,227.369965 
	C203.146561,221.980606 197.585297,217.258194 191.768738,212.271729 
z"/>
<path fill="#2C4666" opacity="1.000000" stroke="none" 
	d="
M265.702545,254.128540 
	C267.824341,261.993744 269.077606,269.905823 269.017487,278.430542 
	C262.144775,275.105194 257.062683,269.104706 251.076080,264.221039 
	C249.146469,262.646942 251.502563,262.057953 252.406952,261.520874 
	C256.680359,258.983002 261.027649,256.569550 265.702545,254.128540 
z"/>
<path fill="#000000" opacity="1.000000" stroke="none" 
	d="
M366.399719,173.223480 
	C357.630463,169.499084 350.334320,164.127991 342.399323,159.896851 
	C341.543488,159.440491 340.745941,158.874512 339.888458,158.421738 
	C331.126953,153.795670 330.989838,153.523392 332.583984,142.586105 
	C344.012665,152.512543 355.155853,162.191025 366.523743,172.128418 
	C366.789459,172.712967 366.830475,173.038620 366.399719,173.223480 
z"/>
<path fill="#2B4565" opacity="1.000000" stroke="none" 
	d="
M226.075531,307.588013 
	C219.477112,301.937531 216.923859,293.740631 214.005859,285.333679 
	C215.307068,281.666473 218.877319,281.374237 221.312225,279.544983 
	C222.814331,278.416565 223.274689,279.807129 223.805313,280.813171 
	C225.441650,283.915588 226.524628,287.075928 226.340103,290.734955 
	C226.065079,296.188263 226.224869,301.663513 226.075531,307.588013 
z"/>
<path fill="#000000" opacity="1.000000" stroke="none" 
	d="
M209.764114,243.332489 
	C210.011642,244.468262 212.695358,243.604294 211.197586,245.106140 
	C209.621841,246.686203 207.648193,247.836838 205.143311,246.065857 
	C202.273834,244.037155 199.125977,242.406494 196.145508,240.529175 
	C193.856079,239.087128 190.049286,238.979492 189.364166,236.381134 
	C188.473816,233.004364 189.146622,229.215424 189.146622,224.898727 
	C196.220245,231.192139 202.882355,237.119431 209.764114,243.332489 
z"/>
<path fill="#2E4968" opacity="1.000000" stroke="none" 
	d="
M262.301331,242.822662 
	C257.861755,247.743561 251.863815,249.471375 246.148376,252.316254 
	C249.480331,246.576385 252.786469,240.821274 256.160339,235.106140 
	C257.145386,233.437500 258.013153,234.465454 258.907745,235.728836 
	C261.081757,237.702667 263.562622,239.135620 262.301331,242.822662 
z"/>
<path fill="#000000" opacity="1.000000" stroke="none" 
	d="
M168.270966,224.710144 
	C166.684494,223.822952 165.391876,223.174622 163.715546,222.333817 
	C167.087677,219.092865 171.124542,217.271301 174.863373,215.050720 
	C177.169449,213.681076 178.046051,214.834473 178.013245,217.232956 
	C177.958786,221.215561 177.998413,225.199463 177.998413,229.337906 
	C174.276138,228.946411 171.664017,226.409058 168.270966,224.710144 
z"/>
<path fill="#000000" opacity="1.000000" stroke="none" 
	d="
M130.000641,248.113113 
	C129.692993,251.294754 131.294586,255.229446 129.197189,256.427094 
	C127.287796,257.517395 124.464104,254.526901 122.155014,253.072937 
	C120.259987,251.879700 118.172096,250.992752 115.818970,249.790878 
	C119.925507,245.747818 125.287552,244.579041 130.000641,240.443954 
	C130.000641,243.543091 130.000641,245.597168 130.000641,248.113113 
z"/>
<path fill="#2C4666" opacity="1.000000" stroke="none" 
	d="
M398.486816,385.097443 
	C397.739563,380.400024 397.364899,375.703217 396.967499,370.567169 
	C400.432281,370.458679 402.939423,372.856476 405.706604,374.553955 
	C408.382355,376.195343 408.154663,380.286713 405.485962,381.864624 
	C403.381195,383.109100 401.510040,384.939087 398.486816,385.097443 
z"/>
<path fill="#000000" opacity="1.000000" stroke="none" 
	d="
M141.999680,203.808228 
	C141.999680,197.410782 141.999680,191.486008 141.999680,185.561249 
	C146.160400,194.159348 146.539886,203.566193 148.641571,212.677414 
	C142.390671,210.825989 142.006363,210.329239 141.999680,203.808228 
z"/>
<path fill="#000000" opacity="1.000000" stroke="none" 
	d="
M401.606323,341.989594 
	C400.654236,346.726044 399.332520,351.484375 397.984558,356.641418 
	C394.034943,354.953247 390.111542,352.866425 385.912323,350.632904 
	C391.272552,347.617279 396.254639,344.814392 401.606323,341.989594 
z"/>
<path fill="#000000" opacity="1.000000" stroke="none" 
	d="
M111.386284,329.937378 
	C110.386223,328.783966 109.756737,327.621521 108.987946,326.157349 
	C109.746895,324.559235 110.794044,323.340424 111.517105,321.952728 
	C114.339218,316.536499 114.289215,316.534424 119.576813,320.047943 
	C121.008850,320.999481 122.536400,321.807312 124.684822,323.072571 
	C120.052925,325.528900 115.904892,327.728607 111.386284,329.937378 
z"/>
<path fill="#385A82" opacity="1.000000" stroke="none" 
	d="
M426.486084,366.289734 
	C423.012146,362.741577 419.879730,362.512177 417.201752,366.564026 
	C416.059143,368.292908 415.054565,368.117432 413.519714,367.235931 
	C411.565338,366.113495 412.347260,364.842285 413.019836,363.470398 
	C415.666016,358.072784 420.867859,357.212433 425.172668,361.468079 
	C427.329529,363.600342 428.145508,365.294769 428.715546,369.140900 
	C427.890411,368.073212 427.311249,367.323761 426.486084,366.289734 
z"/>
<path fill="#385A82" opacity="1.000000" stroke="none" 
	d="
M429.985474,384.836426 
	C428.031921,393.832184 422.408386,396.641235 417.142456,391.537720 
	C416.209167,390.633209 414.246063,389.663300 415.720734,387.968994 
	C416.795776,386.733887 418.276550,386.013092 420.042816,387.511688 
	C423.630798,390.555847 426.427094,389.162933 428.848999,385.312592 
	C429.249573,384.891418 429.460693,384.771179 429.985474,384.836426 
z"/>
<path fill="#2E4968" opacity="1.000000" stroke="none" 
	d="
M211.310211,272.902344 
	C210.952591,269.600739 210.956528,266.341797 210.946930,262.641235 
	C211.395737,262.365021 211.915329,262.444946 212.311081,262.709869 
	C214.865311,264.419861 219.772034,265.295410 219.530502,267.785797 
	C219.262558,270.548737 214.667953,271.607819 211.310211,272.902344 
z"/>
<path fill="#000000" opacity="1.000000" stroke="none" 
	d="
M159.002289,207.792435 
	C159.489929,204.622452 156.905136,202.113647 158.495071,199.028961 
	C162.212662,200.218506 163.540527,204.390350 167.551910,205.807693 
	C165.390671,207.237427 163.757050,208.449738 161.997971,209.438934 
	C160.660645,210.190933 159.092224,210.831100 159.002289,207.792435 
z"/>
<path fill="#385A82" opacity="1.000000" stroke="none" 
	d="
M241.239227,279.642761 
	C242.170456,282.493561 239.765503,286.255951 237.635254,285.865692 
	C236.284698,285.618256 236.391922,284.463898 236.488007,283.537811 
	C236.761475,280.902222 238.312836,279.554016 241.239227,279.642761 
z"/>
<path fill="#000000" opacity="1.000000" stroke="none" 
	d="
M193.304626,252.830048 
	C195.738617,253.303879 195.259216,254.465927 194.160126,255.244324 
	C192.732666,256.255249 191.046844,256.901398 189.192780,257.847137 
	C189.192780,255.295120 189.192780,253.053787 189.192780,250.592346 
	C190.764969,250.596893 192.031876,251.270142 193.304626,252.830048 
z"/>
<path fill="#000000" opacity="1.000000" stroke="none" 
	d="
M262.439209,243.117554 
	C261.148071,241.006012 260.205017,238.850006 259.140930,236.368286 
	C262.050079,236.781570 264.899017,237.838654 266.824219,240.473633 
	C265.476471,241.341461 264.131866,242.207291 262.439209,243.117554 
z"/>
<path fill="#000000" opacity="1.000000" stroke="none" 
	d="
M172.429657,281.193787 
	C174.318771,280.010803 175.975983,279.115295 177.854034,278.100464 
	C177.854034,280.555664 177.854034,282.641632 177.854034,284.909058 
	C175.298187,284.619354 173.524902,283.429108 172.429657,281.193787 
z"/>
<path fill="#000000" opacity="1.000000" stroke="none" 
	d="
M250.598663,428.979858 
	C250.144119,431.198944 249.327133,433.440216 248.219666,435.892395 
	C243.361038,433.448975 243.361038,433.448975 250.598663,428.979858 
z"/>
<path fill="#000000" opacity="1.000000" stroke="none" 
	d="
M128.561066,306.181702 
	C131.360413,307.805145 129.221924,310.268921 130.478958,312.996368 
	C127.919136,311.577209 126.076378,310.555603 124.135704,309.479706 
	C125.507957,308.404877 126.846909,307.356140 128.561066,306.181702 
z"/>
<path fill="#000000" opacity="1.000000" stroke="none" 
	d="
M143.914673,283.945557 
	C143.048996,283.977234 142.346588,285.226074 142.158661,284.097351 
	C141.864822,282.332550 142.080795,280.482880 142.080795,278.572510 
	C144.630051,278.387787 145.787521,280.855774 147.848068,281.430237 
	C147.144608,283.018738 145.342712,282.928955 143.914673,283.945557 
z"/>
<path fill="#385A82" opacity="1.000000" stroke="none" 
	d="
M219.325546,255.016571 
	C218.030273,252.414139 220.275787,252.624100 221.371155,252.383255 
	C222.095795,252.223923 222.467377,253.333069 222.313843,254.247971 
	C221.973236,256.277435 220.910019,256.075256 219.325546,255.016571 
z"/>
<path fill="#385A82" opacity="1.000000" stroke="none" 
	d="
M239.668610,241.895782 
	C239.248840,244.263855 238.821045,247.061447 235.087646,244.592163 
	C236.161880,242.945358 237.749405,242.359558 239.668610,241.895782 
z"/>
<path fill="#547092" opacity="1.000000" stroke="none" 
	d="
M430.528564,384.687012 
	C430.089020,385.019714 429.878906,385.017517 429.353638,385.013519 
	C429.969055,381.692963 430.121124,378.307709 429.911865,374.448029 
	C430.092316,373.884430 430.264313,373.763641 430.689331,373.830933 
	C431.124725,377.467682 431.462189,380.919189 430.528564,384.687012 
z"/>
<path fill="#6E86A2" opacity="1.000000" stroke="none" 
	d="
M430.958282,373.653137 
	C430.772095,374.009521 430.601868,374.000061 430.175964,373.997925 
	C429.140320,372.909943 428.592499,371.771973 429.317719,370.193726 
	C430.621063,370.898224 430.793640,372.095154 430.958282,373.653137 
z"/>
<path fill="#C0C7D0" opacity="1.000000" stroke="none" 
	d="
M226.051239,257.502747 
	C226.659424,257.938080 226.621368,258.439758 226.033661,258.429321 
	C225.442108,258.418823 225.430084,257.916901 226.051239,257.502747 
z"/>
<path fill="#000000" opacity="1.000000" stroke="none" 
	d="
M366.539551,172.556732 
	C367.082306,172.832138 367.416199,173.276962 367.750092,173.721802 
	C367.212433,173.694519 366.674774,173.667236 366.032532,173.361328 
	C366.062225,172.963837 366.196472,172.844986 366.539551,172.556732 
z"/>
<path fill="#385A82" opacity="1.000000" stroke="none" 
	d="
M240.036194,242.035156 
	C240.217865,242.095108 239.687637,241.293518 240.130920,241.925964 
	C239.978653,241.987579 240.017517,242.018692 240.036194,242.035156 
z"/>
<path fill="#000000" opacity="1.000000" stroke="none" 
	d="
M201.893677,2.733219 
	C201.144684,2.545258 200.405426,2.044844 201.748444,1.432679 
	C202.089966,1.886041 202.075806,2.139102 201.893677,2.733219 
z"/>
<path fill="#C0C7D0" opacity="1.000000" stroke="none" 
	d="
M256.196472,467.585327 
	C255.427185,460.500732 255.124649,453.867279 257.889465,447.509003 
	C262.194519,437.608643 270.883423,436.432220 276.973083,445.354767 
	C284.188354,455.926453 285.367096,467.586212 281.058228,479.646912 
	C279.598389,483.733032 276.934937,487.136749 272.283905,487.624176 
	C267.650146,488.109802 264.542511,485.196167 261.937439,481.739532 
	C258.856995,477.652100 257.410492,472.891205 256.196472,467.585327 
z"/>
<path fill="#C0C7D0" opacity="1.000000" stroke="none" 
	d="
M95.482635,347.689270 
	C97.448997,355.656616 97.897598,363.224121 95.157990,370.700012 
	C93.547699,375.094177 91.167145,379.064911 86.115730,379.758362 
	C80.995491,380.461273 77.557632,377.147949 75.137856,373.237274 
	C68.734764,362.888947 67.283798,351.753998 71.306236,340.196777 
	C72.755859,336.031769 75.238945,332.283997 80.233757,331.724335 
	C85.181183,331.170044 88.302467,334.231354 90.948112,337.840454 
	C93.034721,340.686981 94.423851,343.894531 95.482635,347.689270 
z"/>
<path fill="#385A82" opacity="1.000000" stroke="none" 
	d="
M278.866577,469.800781 
	C279.153961,470.470215 279.198853,470.984711 279.085846,471.461731 
	C278.067719,475.759796 276.843170,480.254456 271.699707,480.952393 
	C266.491547,481.659119 264.069153,477.602570 262.168243,473.637878 
	C259.366394,467.794098 258.444489,461.611206 259.991058,455.223328 
	C260.948578,451.268341 262.254822,447.193512 266.739685,446.169617 
	C271.449554,445.094360 273.939209,448.551361 276.199036,452.389099 
	C276.182617,452.933624 276.072876,453.145782 275.647247,453.526428 
	C271.563110,453.408569 267.624817,452.407532 266.304688,457.845978 
	C265.029694,463.098419 266.879486,470.883087 270.301208,472.985107 
	C274.009338,475.263000 275.093414,471.452820 277.514221,469.839813 
	C278.072235,469.658997 278.311554,469.643738 278.866577,469.800781 
z"/>
<path fill="#6E86A2" opacity="1.000000" stroke="none" 
	d="
M279.417786,469.655670 
	C279.010345,469.996521 278.838348,470.019958 278.406647,470.061218 
	C274.555908,465.719330 275.859406,460.458679 275.715332,455.128540 
	C276.253418,454.647858 276.541290,454.549255 277.200806,454.715637 
	C279.720184,459.555695 280.573914,464.318390 279.417786,469.655670 
z"/>
<path fill="#385A82" opacity="1.000000" stroke="none" 
	d="
M277.433594,454.682587 
	C277.324432,454.972076 277.076447,454.963562 276.456238,454.949219 
	C275.745514,454.781769 275.509674,454.525665 275.361023,453.903748 
	C275.503174,453.480774 275.660767,453.329041 276.055359,452.949402 
	C276.626526,453.275818 276.960632,453.830200 277.433594,454.682587 
z"/>
<path fill="#375981" opacity="1.000000" stroke="none" 
	d="
M92.330490,363.936371 
	C91.927567,365.915833 91.525383,367.754639 90.619919,369.298187 
	C87.861336,374.000641 83.372726,374.586731 79.373611,370.936035 
	C72.794876,364.930481 70.814156,349.732483 75.618248,342.121155 
	C79.244339,336.376160 83.973671,336.720551 89.145180,343.424011 
	C89.183731,343.976807 89.111465,344.203674 88.769318,344.663849 
	C84.990555,345.390289 80.958191,344.869934 79.979324,349.848938 
	C78.901421,355.331757 79.275955,360.476990 83.255791,364.769867 
	C86.114212,367.853119 88.321564,364.872528 91.043121,363.642822 
	C91.627655,363.593292 91.864372,363.626984 92.330490,363.936371 
z"/>
<path fill="#547092" opacity="1.000000" stroke="none" 
	d="
M92.381760,351.953064 
	C93.155792,355.855469 93.357216,359.654175 92.725716,363.834503 
	C92.397072,364.110748 92.234222,364.009430 91.873184,363.699524 
	C89.067108,360.260498 89.789948,356.727478 90.986198,352.794586 
	C91.470062,352.226288 91.705597,352.037445 92.381760,351.953064 
z"/>
<path fill="#6E86A2" opacity="1.000000" stroke="none" 
	d="
M92.835999,351.766296 
	C92.822388,352.057556 92.366104,352.034088 92.138214,352.018158 
	C90.364632,352.067688 90.253983,350.978394 90.294876,349.462708 
	C90.578484,348.856415 90.750984,348.643951 91.241547,348.690979 
	C91.989609,349.792023 92.419617,350.633545 92.835999,351.766296 
z"/>
<path fill="#375981" opacity="1.000000" stroke="none" 
	d="
M89.995071,345.877228 
	C90.723572,346.572357 91.115509,347.410034 91.533524,348.599121 
	C91.559601,348.950531 91.218102,349.035858 91.078384,349.142883 
	C89.675819,349.259369 89.306084,348.428833 89.233482,347.013428 
	C89.414467,346.441650 89.536491,346.230713 89.995071,345.877228 
z"/>
<path fill="#375981" opacity="1.000000" stroke="none" 
	d="
M88.993698,344.013489 
	C89.570244,344.222992 89.884483,344.696014 90.265182,345.451874 
	C90.184525,345.852325 90.037407,345.970001 89.670097,346.264771 
	C88.880959,346.272491 88.502708,345.897400 88.242981,345.080231 
	C88.381897,344.628754 88.556641,344.452911 88.993698,344.013489 
z"/>
<path fill="#C6CCD5" opacity="1.000000" stroke="none" 
	d="
M275.085022,453.388550 
	C275.514771,453.920959 275.683929,454.209412 275.968567,454.720642 
	C278.127838,459.486786 278.612091,464.249908 278.116638,469.617188 
	C277.252319,473.011932 276.233185,476.031891 272.565094,476.210052 
	C268.782318,476.393768 267.096527,473.495270 265.754181,470.564850 
	C263.601715,465.866028 263.149750,460.949554 264.777161,456.018616 
	C266.672424,450.276184 269.925873,449.410889 275.085022,453.388550 
z"/>
<path fill="#C4CBD4" opacity="1.000000" stroke="none" 
	d="
M87.909073,344.596741 
	C88.503914,345.225067 88.800674,345.645569 89.273674,346.253967 
	C89.828781,347.199158 90.207649,347.956421 90.762596,348.981781 
	C91.110802,350.029541 91.282928,350.809174 91.682693,351.795532 
	C91.850395,355.552704 91.790459,359.103149 91.702759,363.072296 
	C90.282700,365.938202 89.022469,368.843567 85.626999,368.534332 
	C82.309998,368.232208 80.556770,365.568787 79.343010,362.778839 
	C77.232094,357.926758 76.694885,352.873505 78.465973,347.799011 
	C80.161247,342.941742 82.829742,342.017914 87.909073,344.596741 
z"/>
</svg>