
<svg version="1.1" id="Layer_1" xmlns="http://www.w3.org/2000/svg" xmlns:xlink="http://www.w3.org/1999/xlink" x="0px" y="0px"
	 width="100%" viewBox="0 0 259 194" enable-background="new 0 0 259 194" xml:space="preserve">
<path fill="#FFFFFF" opacity="1.000000" stroke="none" 
	d="
M150.000000,195.000000 
	C100.000000,195.000000 50.500008,195.000000 1.000007,195.000000 
	C1.000004,130.333344 1.000004,65.666679 1.000002,1.000015 
	C87.333321,1.000010 173.666641,1.000010 260.000000,1.000005 
	C260.000000,65.666649 260.000000,130.333298 260.000000,194.999969 
	C223.500000,195.000000 187.000000,195.000000 150.000000,195.000000 
M172.562912,85.075478 
	C164.273285,60.975368 142.600494,51.939266 122.080872,56.810211 
	C99.043938,62.278717 85.570663,86.214966 92.104004,109.154533 
	C97.613319,128.498642 115.702705,140.603867 136.806656,139.069092 
	C154.988770,137.746796 171.119553,122.534302 173.504608,104.394753 
	C166.602417,103.327377 161.367035,103.440392 157.213806,111.434341 
	C150.571243,124.219658 136.013306,128.501923 122.210533,123.873459 
	C110.288383,119.875633 102.645683,107.657410 103.884750,94.180321 
	C106.106873,94.048744 108.384453,93.913879 110.623619,93.781288 
	C113.562126,80.054131 121.277794,72.883324 132.862823,73.002342 
	C144.407654,73.120949 151.589600,80.021591 154.414368,93.827744 
	C160.820267,93.827744 167.254730,93.827744 174.304276,93.827744 
	C173.767624,90.946350 173.292587,88.395813 172.562912,85.075478 
M144.123505,94.067192 
	C145.027023,93.309868 146.712128,92.552269 146.711868,91.795242 
	C146.709549,85.005630 139.309784,78.777817 132.005417,79.166313 
	C124.229431,79.579910 118.491898,86.148071 119.391739,94.067009 
	C127.293365,94.067009 135.244858,94.067009 144.123505,94.067192 
z"/>
<path fill="#F74248" opacity="1.000000" stroke="none" 
	d="
M172.690247,85.460373 
	C173.292587,88.395813 173.767624,90.946350 174.304276,93.827744 
	C167.254730,93.827744 160.820267,93.827744 154.414368,93.827744 
	C151.589600,80.021591 144.407654,73.120949 132.862823,73.002342 
	C121.277794,72.883324 113.562126,80.054131 110.623619,93.781288 
	C108.384453,93.913879 106.106873,94.048744 103.884750,94.180321 
	C102.645683,107.657410 110.288383,119.875633 122.210533,123.873459 
	C136.013306,128.501923 150.571243,124.219658 157.213806,111.434341 
	C161.367035,103.440392 166.602417,103.327377 173.504608,104.394753 
	C171.119553,122.534302 154.988770,137.746796 136.806656,139.069092 
	C115.702705,140.603867 97.613319,128.498642 92.104004,109.154533 
	C85.570663,86.214966 99.043938,62.278717 122.080872,56.810211 
	C142.600494,51.939266 164.273285,60.975368 172.690247,85.460373 
z"/>
<path fill="#F74248" opacity="1.000000" stroke="none" 
	d="
M143.659927,94.067101 
	C135.244858,94.067009 127.293365,94.067009 119.391739,94.067009 
	C118.491898,86.148071 124.229431,79.579910 132.005417,79.166313 
	C139.309784,78.777817 146.709549,85.005630 146.711868,91.795242 
	C146.712128,92.552269 145.027023,93.309868 143.659927,94.067101 
z"/>
</svg>